<svg xmlns="http://www.w3.org/2000/svg" version="1.0" width="472.964357pt" height="706.972477pt" viewBox="0 0 472.964357 706.972477" preserveAspectRatio="xMidYMid meet">
    <!-- Background and border rectangle -->
    <rect x="33" y="30" width="86%" height="92%" fill="#e5e8e9" stroke="none" stroke-width="100%"/>
Created by potrace 1.12, written by Peter Selinger 2001-2015
<g transform="translate(-275.001531,860.775144) scale(0.100000,-0.100000)" fill="#3379b5" stroke="none">
<path d="M3434 8590 c-209 -55 -368 -200 -448 -410 -20 -53 -21 -75 -26 -695 l-5 -640 -66 -5 c-48 -4 -73 -11 -89 -25 -49 -45 -50 -51 -50 -427 0 -316 2 -357 18 -388 22 -45 72 -70 139 -70 l52 0 1 -1912 c1 -2118 -3 -1985 66 -2128 51 -104 189 -243 287 -289 146 -68 15 -63 1781 -63 880 1 1618 4 1640 7 75 12 194 56 253 94 83 54 183 166 227 255 69 140 66 32 66 1889 l0 1677 56 0 c62 0 105 20 125 56 13 25 15 77 11 241 -2 97 -4 104 -31 135 -25 29 -35 32 -95 36 l-66 4 0 178 0 178 65 4 c58 3 69 8 98 36 l32 32 3 149 c3 122 1 153 -12 179 -26 51 -65 70 -148 71 l-37 1 -3 683 c-3 676 -3 683 -25 740 -72 188 -217 331 -406 400 l-62 22 -1640 2 c-1576 2 -1643 1 -1711 -17z m2117 -420 c28 -15 51 -65 43 -95 -3 -14 -18 -34 -31 -45 -25 -19 -42 -20 -444 -20 -229 0 -425 3 -434 6 -21 8 -45 56 -45 89 0 15 11 36 26 50 l27 25 419 0 c269 0 426 -4 439 -10z m-1940 -39 c33 -33 39 -45 39 -83 0 -75 -57 -125 -133 -115 -104 14 -138 142 -56 212 48 40 101 35 150 -14z m476 -5 c74 -80 16 -196 -97 -196 -24 0 -42 10 -71 39 -43 43 -50 80 -24 130 41 80 132 93 192 27z m2933 -2957 l0 -2426 -262 -6 c-145 -3 -1001 -5 -1903 -4 l-1640 2 -3 2417 c-1 1329 0 2422 3 2430 4 11 329 13 1905 13 l1900 0 0 -2426z m-1768 -2707 c66 -29 141 -102 169 -165 35 -77 34 -192 -3 -269 -35 -76 -103 -141 -176 -168 -84 -32 -206 -25 -281 15 -57 32 -104 83 -142 155 -34 64 -34 193 -1 265 25 55 91 128 137 152 89 48 210 54 297 15z" fill="#3379b5"/>
<path d="M3936 7242 c-72 -54 -70 -46 -76 -361 l-5 -284 -46 -16 c-144 -50 -237 -159 -269 -314 -33 -164 58 -341 218 -419 62 -31 74 -33 167 -33 93 0 105 2 167 33 86 42 178 138 207 217 20 53 21 74 21 466 0 240 -4 418 -9 428 -10 18 -301 289 -326 303 -7 4 -28 -4 -49 -20z m163 -289 l61 -68 0 -368 c0 -403 0 -406 -60 -465 -45 -46 -84 -63 -152 -69 -80 -8 -135 15 -192 78 -100 111 -70 275 64 349 47 25 146 34 183 16 16 -8 17 10 17 293 0 175 4 301 9 301 5 0 37 -30 70 -67z" fill="#3379b5"/>
<path d="M3848 6280 c-28 -28 -30 -36 -25 -78 9 -79 76 -119 146 -87 74 33 90 109 34 167 -22 23 -35 28 -76 28 -41 0 -53 -5 -79 -30z" fill="#3379b5"/>
<path d="M5020 7250 c-150 -38 -267 -146 -321 -295 -33 -91 -31 -219 4 -305 53 -128 158 -229 276 -264 104 -31 252 -16 361 36 106 51 199 186 223 322 32 188 -75 387 -257 476 -61 30 -80 34 -160 37 -50 1 -107 -2 -126 -7z m216 -169 c54 -24 111 -76 135 -122 15 -31 19 -63 21 -161 l3 -123 -36 -3 -37 -3 -4 98 c-3 79 -8 105 -25 133 -21 33 -69 70 -92 70 -8 0 -11 -48 -11 -150 0 -170 -6 -191 -67 -237 -48 -36 -135 -40 -180 -7 -99 74 -96 200 7 256 35 19 91 20 133 3 16 -7 17 4 17 135 l0 142 48 -7 c26 -4 65 -15 88 -24z" fill="#3379b5"/>
<path d="M6168 7154 c-95 -29 -183 -153 -203 -286 -9 -61 12 -134 80 -268 l52 -105 -70 -75 c-126 -135 -167 -223 -153 -328 13 -99 86 -208 173 -258 204 -120 500 -22 584 194 32 81 32 199 0 264 -60 124 -190 170 -309 109 -51 -26 -99 -82 -107 -125 -4 -19 -20 -47 -36 -62 -47 -45 -37 -109 21 -139 49 -25 88 -19 126 19 34 34 39 54 25 91 -18 44 39 99 84 81 24 -9 55 -68 55 -106 -1 -74 -65 -162 -142 -194 -45 -19 -116 -20 -172 -4 -51 16 -121 84 -134 132 -19 67 -2 96 151 255 195 202 251 268 284 331 24 49 28 66 28 150 0 82 -4 103 -26 151 -69 146 -185 210 -311 173z m125 -181 c60 -64 74 -158 32 -231 -35 -61 -97 -134 -106 -125 -4 4 -26 42 -48 84 -47 86 -55 147 -28 211 36 87 100 112 150 61z" fill="#3379b5"/>
<path d="M4987 6000 c-239 -41 -457 -184 -594 -390 -40 -61 -62 -110 -93 -209 l-26 -84 -26 44 c-37 63 -128 146 -194 176 -80 37 -168 49 -244 35 -300 -55 -459 -355 -332 -625 63 -136 181 -223 335 -248 69 -12 85 -11 144 5 129 34 208 89 279 192 l38 55 18 -62 c63 -223 238 -432 443 -530 139 -67 282 -90 480 -78 77 5 124 14 202 41 129 44 198 85 291 173 124 116 202 243 239 387 10 37 20 68 23 68 4 0 13 -15 22 -33 49 -102 179 -195 306 -219 169 -31 368 66 451 221 99 186 62 396 -97 541 -93 86 -146 104 -297 105 -109 0 -125 -2 -177 -27 -72 -34 -142 -98 -181 -167 -32 -56 -39 -55 -52 9 -12 63 -94 217 -154 293 -201 249 -512 376 -804 327z m503 -1161 c-21 -78 -86 -129 -168 -131 -94 -3 -162 57 -164 146 -1 91 78 165 164 153 l38 -5 0 279 c0 217 -3 279 -12 278 -7 0 -93 -28 -191 -63 l-178 -62 1 -342 c0 -211 -4 -358 -10 -382 -20 -75 -101 -140 -172 -140 -43 0 -116 37 -142 72 -14 20 -20 43 -19 78 1 94 65 155 154 147 l47 -4 -2 345 -1 345 330 111 330 111 3 -449 c1 -286 -2 -462 -8 -487z m904 562 c9 -10 25 -42 35 -72 l19 -54 92 -5 c133 -7 140 -31 31 -109 -34 -25 -61 -52 -61 -61 0 -9 9 -43 20 -76 27 -78 24 -108 -12 -112 -20 -2 -45 9 -86 37 -32 23 -61 41 -65 41 -5 0 -34 -18 -66 -39 -55 -38 -72 -45 -97 -42 -24 2 -24 37 2 114 l27 81 -24 18 c-79 62 -119 101 -119 118 0 24 20 29 119 32 l74 3 19 54 c29 86 58 109 92 72z m-2354 -241 c0 -92 -5 -169 -11 -182 -38 -83 -179 -78 -179 7 0 36 42 75 80 75 l30 0 0 80 0 80 -32 0 c-18 0 -57 -3 -85 -6 l-53 -7 0 -113 c0 -105 -2 -114 -25 -142 -29 -35 -62 -44 -103 -26 -42 17 -57 48 -42 84 11 25 26 36 83 54 15 5 17 20 17 125 l0 119 127 1 c70 1 129 4 132 6 2 3 17 5 33 5 l28 0 0 -160z" fill="#3379b5"/>
<path d="M6146 4214 c-331 -80 -500 -464 -345 -780 43 -87 146 -197 219 -234 65 -33 185 -60 264 -60 235 0 451 167 511 395 20 78 20 236 -1 306 -43 147 -138 261 -276 328 -125 62 -244 76 -372 45z m494 -279 c11 -13 -34 -62 -296 -328 -170 -171 -313 -312 -319 -312 -6 0 -11 118 -13 328 l-2 327 309 0 c263 0 310 -2 321 -15z" fill="#3379b5"/>
<path d="M3790 4131 c-85 -27 -151 -64 -234 -132 -121 -97 -153 -161 -103 -207 39 -36 63 -28 146 51 224 210 493 210 722 0 86 -79 109 -87 153 -52 44 35 36 78 -25 139 -106 106 -225 177 -340 205 -89 21 -249 19 -319 -4z" fill="#3379b5"/>
<path d="M4980 3888 c-116 -41 -205 -121 -255 -230 -56 -124 -55 -250 4 -367 38 -73 118 -149 200 -189 75 -36 78 -37 196 -37 109 0 125 2 178 27 188 88 289 312 228 507 -39 125 -120 218 -237 273 -92 43 -218 49 -314 16z m45 -223 c47 -46 26 -127 -36 -140 -71 -16 -126 49 -99 116 15 36 35 48 78 49 22 0 41 -8 57 -25z m296 12 c21 -16 39 -51 39 -77 0 -33 -53 -80 -90 -80 -70 0 -107 95 -58 147 24 26 82 31 109 10z m-295 -268 c7 -5 17 -23 22 -38 33 -95 -112 -150 -156 -59 -11 23 -10 33 2 63 8 19 25 40 38 45 26 11 75 5 94 -11z m312 -14 c26 -31 27 -46 7 -84 -26 -51 -102 -63 -138 -23 -29 33 -25 85 9 119 21 21 32 24 62 20 22 -4 46 -17 60 -32z" fill="#3379b5"/>
<path d="M3843 3836 c-66 -21 -124 -60 -176 -115 -37 -39 -47 -57 -47 -84 0 -71 71 -83 140 -25 129 111 279 110 399 -2 49 -46 89 -52 121 -20 35 35 26 75 -32 136 -76 81 -156 116 -273 120 -58 3 -105 -1 -132 -10z" fill="#3379b5"/>
<path d="M3888 3515 c-58 -32 -84 -115 -54 -173 50 -96 169 -109 235 -26 44 56 18 164 -48 199 -37 19 -97 19 -133 0z" fill="#3379b5"/>
</g>
</svg>